<?xml version="1.0" standalone="no"?>
<!DOCTYPE svg PUBLIC "-//W3C//DTD SVG 20010904//EN"
 "http://www.w3.org/TR/2001/REC-SVG-20010904/DTD/svg10.dtd">
<svg version="1.0" xmlns="http://www.w3.org/2000/svg"
 width="334.000000pt" height="334.000000pt" viewBox="0 0 334.000000 334.000000"
 preserveAspectRatio="xMidYMid meet">
<metadata>
Created by potrace 1.14, written by Peter Selinger 2001-2017
</metadata>
<g transform="translate(0.000000,334.000000) scale(0.100000,-0.100000)"
fill="#000000" stroke="none">
<path d="M1588 2855 c-2 -1 -34 -5 -72 -9 -38 -4 -71 -8 -75 -10 -3 -2 -22 -7
-41 -10 -98 -15 -263 -87 -385 -166 -99 -65 -254 -220 -320 -320 -80 -122
-151 -294 -170 -415 -3 -16 -9 -55 -14 -85 -13 -79 -5 -282 13 -370 101 -467
456 -819 921 -911 104 -21 350 -18 450 5 286 65 525 219 694 446 116 156 174
294 217 522 10 53 11 269 2 318 -5 25 -11 59 -14 75 -57 331 -305 655 -618
808 -125 62 -210 88 -361 113 -33 5 -223 13 -227 9z m279 -54 c243 -48 450
-162 615 -340 197 -215 299 -474 298 -761 0 -129 -4 -166 -35 -286 -91 -358
-369 -657 -727 -779 -146 -51 -354 -74 -481 -54 -29 5 -68 11 -87 14 -244 38
-514 203 -677 415 -387 500 -287 1215 222 1593 76 56 227 137 297 158 82 25
146 41 188 46 25 3 47 7 49 9 14 13 252 2 338 -15z"/>
<path d="M1963 1021 c3 -96 10 -168 17 -182 19 -36 62 -68 93 -69 22 0 27 4
27 24 0 18 -7 25 -30 29 -39 8 -57 46 -59 130 -2 61 0 68 16 67 49 -6 71 0 68
18 -2 9 -4 21 -4 25 -1 5 -19 7 -41 4 -35 -4 -40 -2 -41 17 -1 25 -6 78 -8 89
0 4 -11 7 -22 7 -21 0 -21 -2 -16 -159z"/>
<path d="M785 2787 c-11 -8 -78 -44 -150 -82 -71 -37 -134 -71 -140 -75 -5 -4
-64 -35 -130 -70 -102 -54 -201 -107 -213 -116 -3 -2 22 -49 110 -211 25 -46
34 -50 63 -29 17 12 16 18 -33 110 -29 53 -52 98 -52 100 0 3 48 30 108 62 59
31 130 69 157 84 28 15 111 60 185 100 74 39 139 75 143 79 8 8 -11 61 -22 61
-4 0 -15 -6 -26 -13z"/>
<path d="M2928 1398 c-3 -13 -47 -178 -97 -366 -51 -189 -94 -351 -96 -360 -3
-10 -12 -45 -21 -80 -9 -34 -15 -64 -13 -66 2 -2 16 -6 30 -9 24 -6 26 -3 43
61 9 37 17 72 18 77 0 6 4 18 9 28 9 15 26 17 139 17 l129 0 15 -52 c8 -29 20
-71 25 -94 10 -37 14 -41 36 -36 14 2 27 8 30 12 2 4 -29 132 -71 286 -95 355
-145 544 -150 568 -6 32 -21 40 -26 14z m71 -428 c28 -108 51 -199 51 -203 0
-4 -51 -7 -114 -7 l-113 0 27 103 c16 56 41 152 56 214 16 62 32 107 35 100 4
-7 30 -100 58 -207z"/>
</g>
</svg>
